<svg xmlns="http://www.w3.org/2000/svg" width="1200" height="800" viewBox="0 0 1200 800" role="img" aria-label="HypeStake Pitch Deck first page preview">
  <defs>
    <linearGradient id="bg" x1="0" y1="0" x2="1" y2="1"><stop offset="0" stop-color="#f97316"/><stop offset="1" stop-color="#111827"/></linearGradient>
    <filter id="shadow" x="-20%" y="-20%" width="140%" height="140%"><feDropShadow dx="0" dy="18" stdDeviation="24" flood-color="#000" flood-opacity="0.35"/></filter>
  </defs>
  <rect width="1200" height="800" fill="url(#bg)"/>
  <circle cx="1050" cy="120" r="230" fill="#fff" opacity="0.08"/>
  <circle cx="115" cy="720" r="260" fill="#fff" opacity="0.06"/>
  <g filter="url(#shadow)">
    <rect x="290" y="70" width="620" height="660" rx="18" fill="#f8fafc"/>
    <rect x="335" y="118" width="190" height="12" rx="6" fill="#94a3b8" opacity="0.8"/>
    <rect x="335" y="164" width="480" height="4" rx="2" fill="#cbd5e1"/>
    <rect x="335" y="188" width="410" height="4" rx="2" fill="#cbd5e1"/>
    <text x="335" y="300" font-family="Inter, Arial, sans-serif" font-size="78" font-weight="800" fill="#0f172a">HypeStake</text>
    <text x="337" y="358" font-family="Inter, Arial, sans-serif" font-size="34" font-weight="700" fill="#f97316">Pitch Deck V5</text>
    <rect x="335" y="415" width="430" height="6" rx="3" fill="#e2e8f0"/>
    <rect x="335" y="445" width="500" height="6" rx="3" fill="#e2e8f0"/>
    <rect x="335" y="475" width="455" height="6" rx="3" fill="#e2e8f0"/>
    <text x="335" y="560" font-family="Inter, Arial, sans-serif" font-size="25" font-weight="600" fill="#334155">Sports-betting intelligence, product strategy, and investor narrative</text>
    <rect x="335" y="630" width="155" height="38" rx="19" fill="#f97316" opacity="0.14"/>
    <text x="365" y="655" font-family="Inter, Arial, sans-serif" font-size="16" font-weight="800" fill="#f97316">FIRST PAGE</text>
  </g>
</svg>